<?xml version="1.0" standalone="no"?>
<!DOCTYPE svg PUBLIC "-//W3C//DTD SVG 20010904//EN"
 "http://www.w3.org/TR/2001/REC-SVG-20010904/DTD/svg10.dtd">
<svg version="1.0" xmlns="http://www.w3.org/2000/svg"
 width="1280.000000pt" height="1112.000000pt" viewBox="0 0 1280.000000 1112.000000"
 preserveAspectRatio="xMidYMid meet">
<g transform="translate(0.000000,1112.000000) scale(0.100000,-0.100000)"
fill="#000000" stroke="none">
<path d="M3530 11096 c-20 -13 -51 -41 -70 -62 -18 -22 -796 -872 -1728 -1891
-932 -1019 -1703 -1866 -1713 -1883 -11 -17 -19 -37 -19 -45 0 -32 54 -96 231
-278 l184 -188 47 1 c35 0 54 6 76 25 17 14 709 754 1538 1645 830 891 1514
1618 1520 1616 7 -3 895 -688 1973 -1523 1079 -835 1974 -1526 1989 -1535 25
-17 142 -18 2057 -17 1117 1 2252 5 2524 8 l494 6 20 27 c11 14 46 115 79 225
32 109 61 205 64 213 3 9 -5 31 -18 50 -16 23 -308 244 -834 630 -446 327
-1313 964 -1927 1415 -644 473 -1132 825 -1154 832 -21 7 -544 82 -1163 168
-619 85 -1384 192 -1700 236 -316 44 -672 93 -790 110 -221 31 -483 67 -860
120 -118 16 -330 45 -470 64 -140 20 -263 40 -272 45 -25 14 -38 12 -78 -14z"/>
<path d="M3524 9190 c-81 -25 14 73 -2257 -2339 -174 -185 -236 -257 -256
-300 l-26 -56 0 -2165 0 -2165 21 -46 c29 -62 79 -116 133 -143 57 -29 1301
-491 1365 -507 126 -32 283 49 336 173 22 51 22 54 21 612 -1 309 -6 1249 -12
2089 -6 841 -8 1535 -5 1543 5 12 101 14 718 9 392 -4 724 -8 737 -11 l23 -5
-8 -2242 c-11 -2711 -11 -2542 4 -2594 16 -53 66 -119 117 -155 27 -18 456
-171 1275 -454 679 -234 1249 -428 1265 -431 18 -3 63 6 110 21 44 14 532 167
1085 340 3445 1078 4177 1309 4210 1326 21 11 56 40 78 65 78 89 72 -91 72
2105 l0 1967 -31 61 c-32 65 -66 99 -133 135 -40 21 -49 22 -366 21 -179 -1
-534 -7 -790 -13 -690 -17 -1905 -45 -2625 -61 -247 -5 -533 -12 -635 -16
l-185 -6 -1640 1318 c-902 724 -1794 1441 -1983 1593 -189 152 -366 289 -394
305 -40 23 -65 30 -122 32 -39 2 -85 -1 -102 -6z m7111 -4712 c64 -34 98 -70
129 -139 l26 -56 6 -574 c6 -513 5 -580 -9 -630 -34 -114 -119 -187 -246 -209
-36 -6 -263 -61 -503 -121 -405 -101 -441 -108 -484 -99 -100 23 -169 78 -212
170 l-26 55 -1 705 0 705 27 50 c34 64 80 108 143 137 47 22 66 23 320 29 149
3 385 5 525 5 l255 -1 50 -27z"/>
</g>
</svg>
