<svg xmlns="http://www.w3.org/2000/svg" viewBox="0 0 500 500"><g id="freepik--background-complete--inject-7"><path d="M444.71,349.14H264a5.87,5.87,0,0,1-5.86-5.86V80A5.87,5.87,0,0,1,264,74.15H444.71A5.87,5.87,0,0,1,450.57,80V343.28A5.87,5.87,0,0,1,444.71,349.14ZM264,74.4A5.61,5.61,0,0,0,258.35,80V343.28a5.61,5.61,0,0,0,5.61,5.61H444.71a5.61,5.61,0,0,0,5.61-5.61V80a5.61,5.61,0,0,0-5.61-5.61Z" style="fill:#f0f0f0"></path><path d="M236.28,349.14H55.53a5.87,5.87,0,0,1-5.86-5.86V80a5.87,5.87,0,0,1,5.86-5.86H236.28A5.87,5.87,0,0,1,242.14,80V343.28A5.87,5.87,0,0,1,236.28,349.14ZM55.53,74.4A5.61,5.61,0,0,0,49.92,80V343.28a5.61,5.61,0,0,0,5.61,5.61H236.28a5.61,5.61,0,0,0,5.61-5.61V80a5.61,5.61,0,0,0-5.61-5.61Z" style="fill:#f0f0f0"></path><rect x="0.79" y="410.21" width="500" height="0.25" style="fill:#e0e0e0"></rect><rect x="55.97" y="197.83" width="34.57" height="10.13" rx="1.5" style="fill:#f0f0f0"></rect><rect x="93.69" y="197.83" width="34.57" height="10.13" rx="1.5" style="fill:#f0f0f0"></rect><rect x="74.83" y="210.74" width="34.57" height="10.13" rx="1.5" style="fill:#f0f0f0"></rect><rect x="215.41" y="256.64" width="34.57" height="10.13" rx="1.5" style="fill:#f0f0f0"></rect><rect x="253.13" y="256.64" width="34.57" height="10.13" rx="1.5" style="fill:#f0f0f0"></rect><rect x="234.27" y="269.56" width="34.57" height="10.13" rx="1.5" style="fill:#f0f0f0"></rect><rect x="55.91" y="308.82" width="34.57" height="10.13" rx="1.5" style="fill:#f0f0f0"></rect><rect x="74.77" y="321.74" width="34.57" height="10.13" rx="1.5" style="fill:#f0f0f0"></rect><rect x="368.12" y="151.39" width="34.57" height="10.13" rx="1.5" style="fill:#f0f0f0"></rect><rect x="405.84" y="151.39" width="34.57" height="10.13" rx="1.5" style="fill:#f0f0f0"></rect><rect x="386.98" y="164.3" width="34.57" height="10.13" rx="1.5" style="fill:#f0f0f0"></rect><circle cx="82.63" cy="148.46" r="16.41" transform="translate(-50.52 42.92) rotate(-22.5)" style="fill:#e6e6e6"></circle><rect x="77.09" y="142.29" width="3.81" height="12.33" style="fill:#fff"></rect><rect x="84.34" y="142.29" width="3.81" height="12.33" style="fill:#fff"></rect><path d="M405.84,115.05h0a7.15,7.15,0,0,1-7.15-7.15V95.08a7.15,7.15,0,0,1,7.15-7.15h0A7.15,7.15,0,0,1,413,95.08V107.9A7.15,7.15,0,0,1,405.84,115.05Z" style="fill:#e6e6e6"></path><path d="M420.79,105.34c0,.44,0,7.41-4.58,12a13.53,13.53,0,0,1-9.07,3.89v7.94h-2.63v-7.94a13.56,13.56,0,0,1-9.05-3.89c-4.55-4.61-4.57-11.58-4.57-12l2.63,0c0,.06,0,6.29,3.84,10.15a11.33,11.33,0,0,0,8.47,3.16,11.58,11.58,0,0,0,8.52-3.16c3.78-3.83,3.81-9.94,3.81-10.15Z" style="fill:#e6e6e6"></path><rect x="448.85" y="308.5" width="10.49" height="101.71" style="fill:#e0e0e0"></rect><rect x="415.8" y="308.5" width="10.49" height="101.71" style="fill:#f0f0f0"></rect><rect x="287.75" y="308.5" width="10.49" height="101.71" style="fill:#e0e0e0"></rect><rect x="254.69" y="308.5" width="10.49" height="101.71" style="fill:#f0f0f0"></rect><rect x="348.05" y="215.15" width="17.95" height="204.65" transform="translate(39.55 674.49) rotate(-90)" style="fill:#f0f0f0"></rect><rect x="415.84" y="308.5" width="43.5" height="17.95" style="fill:#e0e0e0"></rect></g><g id="freepik--Shadow--inject-7"><path d="M468.48,454c0,3.5-96.59,6.34-215.74,6.34S37,457.52,37,454s96.59-6.33,215.74-6.33S468.48,450.52,468.48,454Z" style="fill:#f5f5f5"></path></g><g id="freepik--speech-bubble--inject-7"><path d="M119.9,85.78V98.11a4,4,0,0,1-2.72,3.8l.28,6-5.24-5.77h-22a4,4,0,0,1-4-4V85.78a4,4,0,0,1,4-4h25.7A4,4,0,0,1,119.9,85.78Z" style="fill:#407BFF"></path><path d="M119.9,85.78V98.11a4,4,0,0,1-2.72,3.8l.28,6-5.24-5.77h-22a4,4,0,0,1-4-4V85.78a4,4,0,0,1,4-4h25.7A4,4,0,0,1,119.9,85.78Z" style="fill:#fff;opacity:0.5"></path><circle cx="95.13" cy="92.09" r="1.86" style="fill:#407BFF"></circle><circle cx="110.92" cy="92.09" r="1.86" style="fill:#407BFF"></circle><circle cx="103.1" cy="92.09" r="1.86" style="fill:#407BFF"></circle></g><g id="freepik--voice-chat--inject-7"><path d="M206.1,120.76v17.53a4.6,4.6,0,0,0,4.6,4.61h96.8l4,8.76,4.19-8.76h4.87a4.6,4.6,0,0,0,4.6-4.61V120.76a4.59,4.59,0,0,0-4.6-4.6H210.7A4.59,4.59,0,0,0,206.1,120.76Z" style="fill:#407BFF"></path><path d="M206.1,120.76v17.53a4.6,4.6,0,0,0,4.6,4.61h96.8l4,8.76,4.19-8.76h4.87a4.6,4.6,0,0,0,4.6-4.61V120.76a4.59,4.59,0,0,0-4.6-4.6H210.7A4.59,4.59,0,0,0,206.1,120.76Z" style="fill:#fff;opacity:0.5"></path><path d="M227.41,129.08a7.4,7.4,0,1,1-7.4-7.39A7.4,7.4,0,0,1,227.41,129.08Z" style="fill:#407BFF"></path><polygon points="217.98 125.59 217.98 132.57 224.16 128.65 217.98 125.59" style="fill:#fff"></polygon><rect x="231.97" y="124.37" width="1.14" height="10.17" style="fill:#407BFF"></rect><rect x="236.28" y="126.22" width="1.14" height="6.47" style="fill:#407BFF"></rect><rect x="240.59" y="124.37" width="1.14" height="10.17" style="fill:#407BFF"></rect><rect x="244.89" y="126.22" width="1.14" height="6.47" style="fill:#407BFF"></rect><rect x="253.51" y="126.22" width="1.14" height="6.47" style="fill:#407BFF"></rect><rect x="262.12" y="126.22" width="1.14" height="6.47" style="fill:#407BFF"></rect><rect x="270.74" y="126.22" width="1.14" height="6.47" style="fill:#407BFF"></rect><rect x="279.35" y="126.22" width="1.14" height="6.47" style="fill:#407BFF"></rect><rect x="287.96" y="126.22" width="1.14" height="6.47" style="fill:#407BFF"></rect><rect x="296.58" y="126.22" width="1.14" height="6.47" style="fill:#407BFF"></rect><rect x="313.84" y="126.22" width="1.14" height="6.47" style="fill:#407BFF"></rect><rect x="305.42" y="126.22" width="1.14" height="6.47" style="fill:#407BFF"></rect><rect x="249.2" y="124.37" width="1.14" height="10.17" style="fill:#407BFF"></rect><rect x="257.82" y="124.37" width="1.14" height="10.17" style="fill:#407BFF"></rect><rect x="266.43" y="124.37" width="1.14" height="10.17" style="fill:#407BFF"></rect><rect x="275.04" y="124.37" width="1.14" height="10.17" style="fill:#407BFF"></rect><rect x="283.66" y="124.37" width="1.14" height="10.17" style="fill:#407BFF"></rect><rect x="292.27" y="124.37" width="1.14" height="10.17" style="fill:#407BFF"></rect><rect x="300.89" y="124.37" width="1.14" height="10.17" style="fill:#407BFF"></rect><rect x="309.5" y="124.37" width="1.14" height="10.17" style="fill:#407BFF"></rect><rect x="262.12" y="126.22" width="1.14" height="6.47" style="fill:#fff;opacity:0.8"></rect><rect x="270.74" y="126.22" width="1.14" height="6.47" style="fill:#fff;opacity:0.8"></rect><rect x="279.35" y="126.22" width="1.14" height="6.47" style="fill:#fff;opacity:0.8"></rect><rect x="287.96" y="126.22" width="1.14" height="6.47" style="fill:#fff;opacity:0.8"></rect><rect x="296.58" y="126.22" width="1.14" height="6.47" style="fill:#fff;opacity:0.8"></rect><rect x="313.84" y="126.22" width="1.14" height="6.47" style="fill:#fff;opacity:0.8"></rect><rect x="305.42" y="126.22" width="1.14" height="6.47" style="fill:#fff;opacity:0.8"></rect><rect x="266.43" y="124.37" width="1.14" height="10.17" style="fill:#fff;opacity:0.8"></rect><rect x="275.04" y="124.37" width="1.14" height="10.17" style="fill:#fff;opacity:0.8"></rect><rect x="283.66" y="124.37" width="1.14" height="10.17" style="fill:#fff;opacity:0.8"></rect><rect x="292.27" y="124.37" width="1.14" height="10.17" style="fill:#fff;opacity:0.8"></rect><rect x="300.89" y="124.37" width="1.14" height="10.17" style="fill:#fff;opacity:0.8"></rect><rect x="309.5" y="124.37" width="1.14" height="10.17" style="fill:#fff;opacity:0.8"></rect><path d="M291.85,78.93V96.47a4.59,4.59,0,0,1-4.6,4.6h-96.8l-4,8.77-4.19-8.77h-4.87a4.59,4.59,0,0,1-4.6-4.6V78.93a4.6,4.6,0,0,1,4.6-4.6h109.9A4.6,4.6,0,0,1,291.85,78.93Z" style="fill:#407BFF"></path><path d="M291.85,78.93V96.47a4.59,4.59,0,0,1-4.6,4.6h-96.8l-4,8.77-4.19-8.77h-4.87a4.59,4.59,0,0,1-4.6-4.6V78.93a4.6,4.6,0,0,1,4.6-4.6h109.9A4.6,4.6,0,0,1,291.85,78.93Z" style="fill:#fff;opacity:0.5"></path><rect x="183.83" y="80.85" width="5.36" height="10.17" rx="2.6" style="fill:#407BFF"></rect><path d="M192.12,87.38a6.9,6.9,0,0,1-1.72,4.5,5.07,5.07,0,0,1-3.4,1.46v3h-1v-3a5.07,5.07,0,0,1-3.39-1.46,6.9,6.9,0,0,1-1.72-4.5h1a6,6,0,0,0,1.44,3.8,4.25,4.25,0,0,0,3.18,1.19,4.33,4.33,0,0,0,3.19-1.19,6,6,0,0,0,1.43-3.8Z" style="fill:#407BFF"></path><rect x="200.48" y="82.69" width="1.14" height="10.17" style="fill:#407BFF"></rect><rect x="204.78" y="84.54" width="1.14" height="6.47" style="fill:#407BFF"></rect><rect x="209.09" y="82.69" width="1.14" height="10.17" style="fill:#407BFF"></rect><rect x="213.4" y="84.54" width="1.14" height="6.47" style="fill:#407BFF"></rect><rect x="222.01" y="84.54" width="1.14" height="6.47" style="fill:#407BFF"></rect><rect x="230.62" y="84.54" width="1.14" height="6.47" style="fill:#407BFF"></rect><rect x="239.24" y="84.54" width="1.14" height="6.47" style="fill:#407BFF"></rect><rect x="247.85" y="84.54" width="1.14" height="6.47" style="fill:#407BFF"></rect><rect x="256.47" y="84.54" width="1.14" height="6.47" style="fill:#407BFF"></rect><rect x="265.08" y="84.54" width="1.14" height="6.47" style="fill:#407BFF"></rect><rect x="282.34" y="84.54" width="1.14" height="6.47" style="fill:#407BFF"></rect><rect x="273.92" y="84.54" width="1.14" height="6.47" style="fill:#407BFF"></rect><rect x="217.7" y="82.69" width="1.14" height="10.17" style="fill:#407BFF"></rect><rect x="226.32" y="82.69" width="1.14" height="10.17" style="fill:#407BFF"></rect><rect x="234.93" y="82.69" width="1.14" height="10.17" style="fill:#407BFF"></rect><rect x="243.55" y="82.69" width="1.14" height="10.17" style="fill:#407BFF"></rect><rect x="252.16" y="82.69" width="1.14" height="10.17" style="fill:#407BFF"></rect><rect x="260.77" y="82.69" width="1.14" height="10.17" style="fill:#407BFF"></rect><rect x="269.39" y="82.69" width="1.14" height="10.17" style="fill:#407BFF"></rect><rect x="278" y="82.69" width="1.14" height="10.17" style="fill:#407BFF"></rect><rect x="230.62" y="84.54" width="1.14" height="6.47" style="fill:#fff;opacity:0.8"></rect><rect x="239.24" y="84.54" width="1.14" height="6.47" style="fill:#fff;opacity:0.8"></rect><rect x="247.85" y="84.54" width="1.14" height="6.47" style="fill:#fff;opacity:0.8"></rect><rect x="256.47" y="84.54" width="1.14" height="6.47" style="fill:#fff;opacity:0.8"></rect><rect x="265.08" y="84.54" width="1.14" height="6.47" style="fill:#fff;opacity:0.8"></rect><rect x="282.34" y="84.54" width="1.14" height="6.47" style="fill:#fff;opacity:0.8"></rect><rect x="273.92" y="84.54" width="1.14" height="6.47" style="fill:#fff;opacity:0.8"></rect><rect x="234.93" y="82.69" width="1.14" height="10.17" style="fill:#fff;opacity:0.8"></rect><rect x="243.55" y="82.69" width="1.14" height="10.17" style="fill:#fff;opacity:0.8"></rect><rect x="252.16" y="82.69" width="1.14" height="10.17" style="fill:#fff;opacity:0.8"></rect><rect x="260.77" y="82.69" width="1.14" height="10.17" style="fill:#fff;opacity:0.8"></rect><rect x="269.39" y="82.69" width="1.14" height="10.17" style="fill:#fff;opacity:0.8"></rect><rect x="278" y="82.69" width="1.14" height="10.17" style="fill:#fff;opacity:0.8"></rect></g><g id="freepik--Plant--inject-7"><path d="M251.79,396.8s-7.79-12.24-26.7-23.36c-13.35-7.86-21.14-30-21.14-30s25.59,1.11,36.72,16.69S251.79,396.8,251.79,396.8Z" style="fill:#407BFF"></path><g style="opacity:0.2"><path d="M251.79,396.8s-7.79-12.24-26.7-23.36c-13.35-7.86-21.14-30-21.14-30s25.59,1.11,36.72,16.69S251.79,396.8,251.79,396.8Z"></path></g><path d="M251.88,397.13a.38.38,0,0,1-.37-.28,65,65,0,0,0-17.45-29.3A63.72,63.72,0,0,0,221.85,358a.38.38,0,0,1-.14-.52.37.37,0,0,1,.51-.15A64.58,64.58,0,0,1,234.6,367a65.71,65.71,0,0,1,17.64,29.64.38.38,0,0,1-.27.47Z" style="opacity:0.2"></path><path d="M248.44,396.52s-2.23-4.45-12.24-3.33-15.58,6.67-33.38-3.34c0,0,13.35-11.13,27.82-8.9S246.21,388.74,248.44,396.52Z" style="fill:#407BFF"></path><g style="opacity:0.2"><path d="M248.44,396.52s-2.23-4.45-12.24-3.33-15.58,6.67-33.38-3.34c0,0,13.35-11.13,27.82-8.9S246.21,388.74,248.44,396.52Z"></path></g><path d="M248.49,396.9a.38.38,0,0,1-.33-.18c0-.07-4.52-7.1-11.72-8.41-12.59-2.29-21.16,1.73-21.24,1.77a.37.37,0,0,1-.51-.17.38.38,0,0,1,.18-.51c.08,0,8.86-4.18,21.7-1.84,7.54,1.37,12.05,8.46,12.24,8.76a.39.39,0,0,1-.12.53A.53.53,0,0,1,248.49,396.9Z" style="opacity:0.2"></path><path d="M252.81,395.45s-.87-4.9,7.82-10,16.48-3.95,24.78-22.61c0,0-17.35-1-27.63,9.47S249.94,387.87,252.81,395.45Z" style="fill:#407BFF"></path><g style="opacity:0.2"><path d="M252.81,395.45s-.87-4.9,7.82-10,16.48-3.95,24.78-22.61c0,0-17.35-1-27.63,9.47S249.94,387.87,252.81,395.45Z"></path></g><path d="M252.77,395.86a.38.38,0,0,1-.38-.35c0-.36-.65-8.74,4.58-14.34,8.91-9.54,18.42-11.47,18.51-11.49a.39.39,0,0,1,.45.31.38.38,0,0,1-.3.44c-.1,0-9.37,1.91-18.1,11.26-5,5.36-4.39,13.67-4.38,13.76a.38.38,0,0,1-.35.41Z" style="opacity:0.2"></path><path d="M251,456c-19.89,0-32.55-3.16-30.51-17.18,1.29-8.89,8.22-17.6,13.12-22.78.69-.73,1.33-1.39,1.92-2,1.82-1.79,3-2.82,3-2.82l.05-.33.35-2,.4-2.26.92-5.17.31-1.81,10.4-.46,10.85.46.25,1.81.39,2.83.63,4.6.27,2,0,.33s1.23,1,3,2.82c.59.58,1.24,1.24,1.93,2,4.89,5.18,11.83,13.89,13.12,22.78C283.52,452.81,270.86,456,251,456Z" style="fill:#407BFF"></path><polygon points="265.67 401.5 236.05 401.5 236.05 401.5 236.05 395.17 236.05 395.17 265.67 395.17 265.67 395.17 265.67 401.5" style="fill:#407BFF"></polygon><g style="opacity:0.4"><polygon points="265.67 401.5 236.05 401.5 236.05 401.5 236.05 395.17 236.05 395.17 265.67 395.17 265.67 395.17 265.67 401.5" style="fill:#fff"></polygon></g><g style="opacity:0.30000000000000004"><polygon points="263.36 410.89 238.59 410.89 238.94 408.93 263.09 408.93 263.36 410.89"></polygon></g><g style="opacity:0.30000000000000004"><path d="M268.37,416H233.58c.69-.73,1.33-1.39,1.92-2h30.94C267,414.62,267.68,415.28,268.37,416Z"></path></g></g><g id="freepik--character-2--inject-7"><path d="M356.77,180.22c-3.57,7.06-7.36,13.81-11.59,20.49-2.11,3.33-4.3,6.64-6.7,9.92-1.2,1.63-2.46,3.26-3.83,4.9-.7.82-1.42,1.65-2.23,2.49a29.2,29.2,0,0,1-2.85,2.61,16,16,0,0,1-2.25,1.48,11.4,11.4,0,0,1-1.9.77,8.32,8.32,0,0,1-3.26.32,8.61,8.61,0,0,1-1.07-.19,5,5,0,0,1-.58-.17c-.26-.09-.51-.19-.76-.3a6.69,6.69,0,0,1-1-.54l-.36-.24-.21-.17-.4-.33-.28-.26c-.21-.19-.33-.32-.48-.47-.54-.57-.91-1-1.29-1.5-1.41-1.8-2.48-3.46-3.59-5.14-2.18-3.34-4.19-6.67-6.15-10-3.94-6.71-7.64-13.5-11.18-20.42l6.28-4,13.95,18.32c2.32,3,4.63,6.06,7,9,1.15,1.43,2.37,2.87,3.43,4a8.22,8.22,0,0,0,.66.63s.07.06.05,0l0,0-.12-.11-.07-.05-.2-.15a5,5,0,0,0-.65-.36c-.2-.09-.39-.16-.59-.23l-.41-.12a6.87,6.87,0,0,0-.72-.13,5,5,0,0,0-1.83.14,5.09,5.09,0,0,0-.58.2c-.14.06,0,0,.11-.18.3-.31.78-.85,1.25-1.44s1-1.26,1.47-2c1-1.39,2-2.89,2.94-4.43,1.94-3.08,3.84-6.3,5.69-9.56s3.71-6.56,5.54-9.87l5.48-9.9Z" style="fill:#ff8b7b"></path><polygon points="347.36 160.94 330.28 189.05 345.59 201.97 350.85 178.22 347.36 160.94" style="fill:#407BFF"></polygon><polygon points="346.82 161.76 330.28 189.05 345.59 201.97 350.85 178.22 346.82 161.76" style="opacity:0.30000000000000004"></polygon><polygon points="368.52 428.82 368.52 446.19 361.51 446.75 358.07 430.48 368.52 428.82" style="fill:#ff8b7b"></polygon><path d="M363.54,445.11s-2.2-4.23-3.5-3.78-1.84,5.59-1.84,5.59-7.07,2.36-9,2.49-3.58,1.24-3.83,5.1h24.15s-.17-8.71-.21-10.2-2.17.37-2.17.37Z" style="fill:#407BFF"></path><g style="opacity:0.2"><path d="M363.54,445.11s-2.2-4.23-3.5-3.78-1.84,5.59-1.84,5.59-7.07,2.36-9,2.49-3.58,1.24-3.83,5.1h24.15s-.17-8.71-.21-10.2-2.17.37-2.17.37Z" style="fill:#fff"></path></g><path d="M369.21,447.62a3.62,3.62,0,0,0-1.31,5.09.18.18,0,1,1-.31.19,4,4,0,0,1,1.38-5.61c.2-.13.44.21.24.33Z" style="fill:#fff"></path><path d="M369.25,453.13l-18.95.19-4.4.05c-.25,0-.3-.38,0-.38l18.94-.2,4.41-.05c.24,0,.29.38.05.39Z" style="fill:#fff"></path><path d="M359.25,448.44c-1-1.18-2.44-1.52-3.52-.62-.18.14-.42-.19-.24-.34,1.25-1,2.94-.58,4.07.77.17.2-.14.39-.31.19Z" style="fill:#fff"></path><path d="M357.25,449.07a2.45,2.45,0,0,0-3.52-.63c-.18.15-.42-.18-.24-.33,1.25-1,2.94-.58,4.07.76.17.2-.14.4-.31.2Z" style="fill:#fff"></path><path d="M355.18,449.69a2.45,2.45,0,0,0-3.52-.62c-.18.15-.42-.18-.24-.33,1.25-1,2.94-.58,4.07.76.17.2-.14.39-.31.19Z" style="fill:#fff"></path><path d="M372.74,256.64c-.2,3.1.22,12.62-.2,17.73-.79,9.74-1.85,22.37-2.69,35-1,14.65-1.68,29.32-1.33,39.5.9,26.14.7,85.38.7,85.38H357.88s-13.32-58.88-15.81-85.38c-2.08-22-1-78.57-.63-92.25Z" style="fill:#263238"></path><path d="M372.54,274.37c-.79,9.74-1.85,22.37-2.69,35-5.58-16.52-.4-41.48-.4-41.48Z" style="opacity:0.2"></path><polygon points="370.21 434.67 356.9 434.67 355.92 430.43 370.83 429.91 370.21 434.67" style="fill:#407BFF"></polygon><path d="M384.43,350.61c5.48,26,25.73,82.87,25.73,82.87l11.27-1.29s-8.21-58.36-12.06-84.22c-3.47-23.35-5.64-76.62-6.43-92.49l-37.63,1.16c1.19,13.63,14.58,72.37,19.12,94Z" style="fill:#263238"></path><polygon points="420.47 428.82 420.47 446.19 413.46 446.75 410.02 430.48 420.47 428.82" style="fill:#ff8b7b"></polygon><path d="M415.5,445.11s-2.21-4.23-3.51-3.78-1.84,5.59-1.84,5.59-7.07,2.36-9,2.49-3.58,1.24-3.83,5.1h24.15s-.17-8.71-.21-10.2-2.17.37-2.17.37Z" style="fill:#407BFF"></path><g style="opacity:0.2"><path d="M415.5,445.11s-2.21-4.23-3.51-3.78-1.84,5.59-1.84,5.59-7.07,2.36-9,2.49-3.58,1.24-3.83,5.1h24.15s-.17-8.71-.21-10.2-2.17.37-2.17.37Z" style="fill:#fff"></path></g><path d="M421.16,447.62a3.62,3.62,0,0,0-1.31,5.09.18.18,0,1,1-.31.19,4,4,0,0,1,1.38-5.61c.2-.13.44.21.24.33Z" style="fill:#fff"></path><path d="M421.2,453.13l-18.95.19-4.4.05c-.25,0-.3-.38-.05-.38l18.94-.2,4.41-.05c.24,0,.29.38.05.39Z" style="fill:#fff"></path><path d="M411.2,448.44c-1-1.18-2.44-1.52-3.52-.62-.18.14-.42-.19-.24-.34,1.25-1,2.94-.58,4.07.77.17.2-.14.39-.31.19Z" style="fill:#fff"></path><path d="M409.2,449.07a2.45,2.45,0,0,0-3.52-.63c-.18.15-.42-.18-.24-.33,1.25-1,2.94-.58,4.07.76.17.2-.14.4-.31.2Z" style="fill:#fff"></path><path d="M407.13,449.69a2.45,2.45,0,0,0-3.52-.62c-.18.15-.41-.18-.24-.33,1.25-1,2.94-.58,4.07.76.17.2-.14.39-.31.19Z" style="fill:#fff"></path><polygon points="422.45 432.49 409.23 433.99 407.78 429.88 422.52 427.68 422.45 432.49" style="fill:#407BFF"></polygon><path d="M339.94,260.3l64.5-2.24c.41-9-7.44-51.37-.59-93.84a7.63,7.63,0,0,0-6.6-8.77c-2.82-.35-6.22-.68-9.95-.86a171.66,171.66,0,0,0-22.94,0c-4.84.44-15.92,2.42-17.92,7.92C344.71,167.32,341.9,246,339.94,260.3Z" style="fill:#407BFF"></path><path d="M301.94,185.29l-.6-6.48s1.13-3.09.12-5c-2.86-5.4-9-7.11-9.53-5.6-.09.25-3.32,8-3.32,8l7.7,9.88Z" style="fill:#ff8b7b"></path><path d="M291.11,182.31l8,1.67c1.36.28,2.3-1,1.88-2.55l-5.14-18.83a2.86,2.86,0,0,0-2-2.06l-8-1.67c-1.36-.28-2.3,1-1.87,2.56l5.14,18.82A2.82,2.82,0,0,0,291.11,182.31Z"></path><g style="opacity:0.2"><path d="M291.11,182.31l8,1.67c1.36.28,2.3-1,1.88-2.55l-5.14-18.83a2.86,2.86,0,0,0-2-2.06l-8-1.67c-1.36-.28-2.3,1-1.87,2.56l5.14,18.82A2.82,2.82,0,0,0,291.11,182.31Z" style="fill:#fff"></path></g><path d="M290.3,182.15l8,1.66c1.37.28,2.3-1,1.88-2.55L295,162.43a2.86,2.86,0,0,0-2-2.06l-8-1.66c-1.37-.29-2.3,1-1.88,2.55l5.14,18.83A2.86,2.86,0,0,0,290.3,182.15Z"></path><g style="opacity:0.2"><path d="M289.13,170.76a3,3,0,0,0,1.91,2.38c.85.18,1.37-.6,1.16-1.74a3,3,0,0,0-1.92-2.39C289.43,168.84,288.92,169.62,289.13,170.76Z" style="fill:#fff"></path></g><path d="M284,165.06s5,1.05,5.08,2.2c.05,1.37-2.18,1-3.84.93C283.37,168.13,283.21,165.12,284,165.06Z" style="fill:#ff8b7b"></path><path d="M285.12,167.71a4.62,4.62,0,0,0-.59,3.34c.4,1.9,2.82,7.71,4.69,3.91,2.82-5.73-3-7.13-4.1-7.25Z" style="fill:#ff8b7b"></path><path d="M292.2,163.05a1.69,1.69,0,0,0,1.07,1.34c.48.1.77-.34.65-1a1.7,1.7,0,0,0-1.08-1.34C292.37,162,292.08,162.41,292.2,163.05Z"></path><g style="opacity:0.2"><path d="M292.2,163.05a1.69,1.69,0,0,0,1.07,1.34c.48.1.77-.34.65-1a1.7,1.7,0,0,0-1.08-1.34C292.37,162,292.08,162.41,292.2,163.05Z" style="fill:#fff"></path></g><path d="M360.59,114a15.93,15.93,0,0,1,12.54,2c2.41,1.58,4.41,3.83,4.05,6.86-.85,7.08-4,18.74-4,18.74l-22.81-13.92s-1-6,1.9-9.7C353.77,116.09,357.43,114.81,360.59,114Z"></path><path d="M361.81,149.41h0l0,.08,1.11,4.08a13.11,13.11,0,0,1-.23,4.44c-.89,1.24-1.29,4,1.89,4,4,0,11.37-5.94,11.63-7.72-1.91-5.48-3.51-11.91-3.25-17.16l-4.56,5Z" style="fill:#ff8b7b"></path><g style="opacity:0.2"><path d="M361.84,149.5l1.11,4.08c2.51-1.17,5.13-3.67,5.71-6.35.41-1.94-.47-3.75-1.25-3.84Z"></path></g><path d="M351.59,141c.24.88.52,1.75.81,2.61,2.59,7.6,12,8.22,17.8,2.57,0,0,0,0,0,0a13.76,13.76,0,0,0,1.46-1.66c3.68-4.91,2.72-8.66,2.09-17.18A11.64,11.64,0,0,0,356.3,118C349.19,122.08,349.13,132.17,351.59,141Z" style="fill:#ff8b7b"></path><path d="M357.19,142.43H357a.26.26,0,1,1,.05-.51,3.65,3.65,0,0,0,4-3.5.26.26,0,0,1,.29-.22.25.25,0,0,1,.22.28A4.18,4.18,0,0,1,357.19,142.43Z"></path><path d="M373.86,128.14s-2.57.14-2.67,2.34.14,2.49.14,2.49l-3,.65s.81-8.39-1.41-8.28.17-3.67-1.16-4.21c-3.14-1.27-11.69-1.3-15,3.86,0,0,.85-5.08,4.9-7.84s12.2-3.37,15.52.62S373.86,128.14,373.86,128.14Z"></path><path d="M378.15,132.49a8.1,8.1,0,0,1-3.2,5.31c-2.31,1.67-4.44-.15-4.63-2.84-.17-2.42.83-6.21,3.54-6.82s4.66,1.75,4.29,4.35" style="fill:#ff8b7b"></path><path d="M361.17,133.14c.09.67-.19,1.25-.62,1.31s-.86-.43-.95-1.1.19-1.25.62-1.31.86.43.95,1.1"></path><path d="M353.86,134c.09.67-.19,1.25-.62,1.31s-.87-.43-1-1.1.19-1.25.63-1.31.86.43.95,1.1"></path><path d="M351,131.5a.36.36,0,0,0,.27-.21,1.77,1.77,0,0,1,.92-1,2,2,0,0,1,1.39,0,.34.34,0,1,0,.27-.62,2.71,2.71,0,0,0-1.92,0,2.39,2.39,0,0,0-1.29,1.43.33.33,0,0,0,.19.44A.5.5,0,0,0,351,131.5Z"></path><path d="M362.78,130.14a.24.24,0,0,0,.14,0,.33.33,0,0,0,.09-.47,2.64,2.64,0,0,0-1.59-1.07,2.41,2.41,0,0,0-1.86.48.35.35,0,0,0-.08.48.36.36,0,0,0,.48.08,1.77,1.77,0,0,1,1.33-.38,2,2,0,0,1,1.16.79A.34.34,0,0,0,362.78,130.14Z"></path><path d="M356.67,132.77a21.23,21.23,0,0,1-2.59,5.67c-.17.25,2.9.77,2.9.77Z" style="fill:#ff5652"></path><path d="M362.5,152.77v0Z"></path><path d="M394.21,264.32l.45.88h0a52.53,52.53,0,0,0,7.52,8.18c3-1.2,5.48-8.5,5.67-9.43s-3.79-7.28-3.79-7.28a29.46,29.46,0,0,0-12.33,5.74c-2.62,2.24,5.24-.45,5.24-.45Z" style="fill:#ff8b7b"></path><path d="M373.57,132.06c0,.11-.67,6-1.91,14.72-1,6.74-2.24,15.18-3.85,24-5,27.3-10.34,45.1-16,52.92-2.72,3.76-6.07,5.65-10,5.65h-.59c-4.47-.21-9.68-2.82-15.51-7.75a113.48,113.48,0,0,1-15-16,231.73,231.73,0,0,1-15.83-23,.39.39,0,0,1,.13-.53.39.39,0,0,1,.53.14,227.88,227.88,0,0,0,15.78,22.92c11.82,15,22.16,23.13,29.89,23.5,3.91.18,7.25-1.6,9.94-5.31,4.29-5.95,8.56-18.27,12.54-36.07v-.05c.86-10.8-4.07-27.81-7.71-38.71.36.2.7.42,1.2.66h0c3.19,9.74,7,23.88,7.35,34.19q1.26-6,2.48-12.64c1.52-8.42,2.78-16.48,3.71-23,1.33-9.26,2-15.53,2.05-15.64a.37.37,0,0,1,.42-.33A.38.38,0,0,1,373.57,132.06Z"></path><path d="M296.32,183.38a230.9,230.9,0,0,0,15.05,21.71c11.82,15,22.16,23.13,29.89,23.5,3.9.18,7.25-1.6,9.94-5.32,4.29-5.94,8.56-18.26,12.54-36.07v0c.86-10.79-4.07-27.8-7.71-38.7.35.2.7.41,1.2.66C358.83,154,360.58,160,362,166a95.08,95.08,0,0,1,2.6,17.31q1.26-6,2.48-12.64c1.52-8.42,2.78-16.48,3.71-23,1.32-9.25,2-15.52,2.05-15.63a.36.36,0,0,1,.41-.33.38.38,0,0,1,.34.41c0,.1-.67,6-1.91,14.72-1,6.74-2.24,15.17-3.85,24-5,27.29-10.34,45.1-16,52.92-2.72,3.76-6.07,5.65-10,5.65h-.59c-4.47-.21-9.68-2.82-15.51-7.76a112.39,112.39,0,0,1-15-16,231.8,231.8,0,0,1-15.45-22.38Z" style="fill:#fff;opacity:0.9"></path><circle cx="373.33" cy="132.26" r="1.18"></circle><circle cx="373.33" cy="132.26" r="1.18"></circle><circle cx="373.33" cy="132.26" r="1.18" style="fill:#fff;opacity:0.9"></circle><path d="M376.93,124.69a36.86,36.86,0,0,1-12.1-.71c-1.13-.22-2.26-.48-3.39-.75a20.49,20.49,0,0,0-4-.61c-6.62-.29-5.5,2.37-7.12,5.11,0,0-13.49-3.61-13.49-8.43a2.91,2.91,0,0,1,.43-1.49c1.93-3.32,7.36-2.27,12.76-.34h0c4.38-9.13,22.5-6.39,26.19-1.06C378.5,119.68,376.93,124.69,376.93,124.69Z" style="fill:#407BFF"></path><path d="M364.83,124c-1.13-.22-2.26-.48-3.39-.75a20.49,20.49,0,0,0-4-.61c-6.62-.29-5.5,2.37-7.12,5.11,0,0-13.49-3.61-13.49-8.43a2.91,2.91,0,0,1,.43-1.49c1.93-3.32,7.36-2.27,12.76-.34,0,0,0,0,0,0C355.85,119.64,361.9,122.77,364.83,124Z" style="opacity:0.5"></path><path d="M402.84,163.23c2.9,8,5.6,16,8.17,24,1.27,4,2.53,8.08,3.71,12.18s2.34,8.19,3.34,12.54c.24,1.11.48,2.2.7,3.46.11.59.21,1.34.29,2.13,0,.43,0,.9,0,1.28l0,1.08a57.44,57.44,0,0,1-1,7c-.79,4.35-1.83,8.49-2.87,12.64-2.16,8.26-4.61,16.35-7.38,24.41l-6.74-1.64,3.51-24.87c.59-4.11,1.09-8.24,1.48-12.23a49,49,0,0,0,.27-5.56l0-.51,0-.29c-.05-.25-.1-.55-.21-1-.17-.81-.44-1.76-.7-2.69-1.1-3.8-2.39-7.77-3.69-11.7l-4-11.85-8.06-23.78Z" style="fill:#ff8b7b"></path><path d="M401.75,157.67s3.5,2.72,5.56,9.81,6.38,18.66,6.38,18.66l-19.26,8.6s-9.64-20.9-9-28.51C386,159.91,394.39,154.78,401.75,157.67Z" style="fill:#407BFF"></path><path d="M401.75,157.67s3.5,2.72,5.56,9.81,6.38,18.66,6.38,18.66l-19.26,8.6s-9.64-20.9-9-28.51C386,159.91,394.39,154.78,401.75,157.67Z" style="opacity:0.30000000000000004"></path><path d="M411,256.47s-3.83-4.23-8.41-3.91c-.81.68-.68,2-.54,3.28,0,0,4.75.79,7.3,3.82C409.3,259.66,411.45,258,411,256.47Z" style="fill:#263238"></path><path d="M407.8,259.25l-1-.38c-1.05-.39-1.43-2-.84-3.57s1.91-2.55,3-2.16l1.24.48-.26.65-1.86,4.5Z" style="fill:#263238"></path><path d="M407.8,259.25c-1.05-.39-1.42-2-.84-3.56s1.91-2.55,3-2.16,1.43,2,.84,3.56S408.85,259.64,407.8,259.25Z" style="fill:#263238"></path><path d="M408.37,258.33c-.68-.25-.93-1.29-.54-2.32s1.24-1.67,1.93-1.41.93,1.29.54,2.32S409.06,258.59,408.37,258.33Z" style="fill:#fff"></path></g><g id="freepik--character-1--inject-7"><path d="M194.58,205.74c0,1.19,0,2.39-.1,3.68,0,.65-.1,1.33-.18,2.07a20,20,0,0,1-.46,2.52,13.48,13.48,0,0,1-.6,1.81,10.52,10.52,0,0,1-2,3.14,9.19,9.19,0,0,1-3.42,2.33,10.32,10.32,0,0,1-1.34.4,8.63,8.63,0,0,1-1.59.2,8.83,8.83,0,0,1-1.37,0,8.42,8.42,0,0,1-1.1-.18,9.66,9.66,0,0,1-2.62-1,11.21,11.21,0,0,1-1.29-.84,16,16,0,0,1-1.46-1.25c-.38-.36-.68-.67-1-1h0c-.55-.61-1-1.16-1.44-1.68-1.26-1.58-2.32-3.05-3.32-4.5-.29-.47-.6-.92-.91-1.38-2.48-3.83-4.76-7.57-6.91-11.38-4.33-7.61-8.3-15.23-11.95-23.15l16.63-8.13c3.8,7.22,7.52,14.63,11.24,21.88,0-.91.07-1.83.1-2.74.22-8.45.36-17,.66-25.52l8.67-.8c1.79,8.52,3.15,17,4.22,25.66.55,4.33.94,8.67,1.26,13.11C194.49,201.15,194.56,203.4,194.58,205.74Z" style="fill:#263238"></path><path d="M176.08,217.55c-.55-.61-1-1.16-1.44-1.68-1.26-1.58-2.32-3.05-3.32-4.5l-1.66-28.21Z" style="opacity:0.2"></path><path d="M180.23,162.08l-2.3-6.6s-1.28-3.14-.31-5.13c2.73-5.65,9-7.65,9.57-6.12.11.26,3.73,8.14,3.73,8.14l-2.13,7.91C186.18,162.62,183.36,163.42,180.23,162.08Z" style="fill:#b55b52"></path><path d="M188.58,158.68l-8.16,2c-1.39.34-2.4-.94-2-2.55L183,138.61a2.92,2.92,0,0,1,2-2.2l8.16-2c1.39-.34,2.4.93,2,2.55l-4.57,19.54A2.92,2.92,0,0,1,188.58,158.68Z"></path><g style="opacity:0.2"><path d="M188.58,158.68l-8.16,2c-1.39.34-2.4-.94-2-2.55L183,138.61a2.92,2.92,0,0,1,2-2.2l8.16-2c1.39-.34,2.4.93,2,2.55l-4.57,19.54A2.92,2.92,0,0,1,188.58,158.68Z" style="fill:#fff"></path></g><path d="M189.4,158.48l-8.16,2c-1.39.34-2.4-.93-2-2.55l4.56-19.54a2.93,2.93,0,0,1,2-2.19l8.16-2c1.38-.35,2.4.93,2,2.55l-4.56,19.54A2.93,2.93,0,0,1,189.4,158.48Z"></path><g style="opacity:0.2"><path d="M190.17,146.73a3.09,3.09,0,0,1-1.87,2.53c-.87.21-1.43-.57-1.26-1.75a3.11,3.11,0,0,1,1.88-2.53C189.78,144.77,190.34,145.55,190.17,146.73Z" style="fill:#fff"></path></g><path d="M195.24,140.68s-5.14,1.28-5.14,2.46c0,1.41,2.28.92,4,.8C196,143.81,196,140.72,195.24,140.68Z" style="fill:#b55b52"></path><path d="M194.18,143.45a4.77,4.77,0,0,1,.72,3.41c-.34,2-2.6,8-4.66,4.19-3.12-5.78,2.78-7.43,3.94-7.6Z" style="fill:#b55b52"></path><path d="M186.73,138.93a1.74,1.74,0,0,1-1.06,1.42c-.49.12-.8-.32-.7-1A1.71,1.71,0,0,1,186,138C186.51,137.83,186.82,138.27,186.73,138.93Z"></path><g style="opacity:0.2"><path d="M186.73,138.93a1.74,1.74,0,0,1-1.06,1.42c-.49.12-.8-.32-.7-1A1.71,1.71,0,0,1,186,138C186.51,137.83,186.82,138.27,186.73,138.93Z" style="fill:#fff"></path></g><polygon points="162.9 435.84 165 446.5 170.64 446.5 171.39 435.84 162.9 435.84" style="fill:#b55b52"></polygon><path d="M169.9,445.14a2.43,2.43,0,0,1,2.42-.87c1.35.46,3.13,2.68,3.13,2.68s7.35,2.35,9.33,2.48,3.72,1.24,4.47,5.08H165.18s-1-8.68-1.09-10.17,2.21.37,2.21.37Z" style="fill:#407BFF"></path><path d="M188.53,453.37l-4.33-.05-19-.2a.18.18,0,1,1,0-.36h1.29s0,0,0,0a4,4,0,0,0-2-5.09c-.21-.11,0-.44.19-.32a4.34,4.34,0,0,1,2.14,5.46l2.68,0,18.95.2A.19.19,0,0,1,188.53,453.37Z"></path><path d="M174.6,448.46a2.33,2.33,0,0,1,3.43-.63c.2.15.38-.18.19-.32a2.71,2.71,0,0,0-3.95.76c-.14.19.19.38.33.19Z" style="fill:#fff"></path><path d="M176.67,449.08a2.34,2.34,0,0,1,3.44-.62c.19.14.37-.18.19-.32a2.7,2.7,0,0,0-4,.75c-.14.2.18.39.32.19Z" style="fill:#fff"></path><path d="M178.81,449.71a2.33,2.33,0,0,1,3.44-.62c.19.14.38-.18.19-.33a2.71,2.71,0,0,0-3.95.76c-.14.2.18.38.32.19Z" style="fill:#fff"></path><polygon points="112.48 435.92 113.65 446.5 119.29 446.5 120.97 435.92 112.48 435.92" style="fill:#b55b52"></polygon><path d="M118.54,445.14a2.45,2.45,0,0,1,2.43-.87c1.35.46,3.13,2.68,3.13,2.68s7.35,2.35,9.33,2.48,3.72,1.24,4.47,5.08H113.83s-1-8.68-1.09-10.17,2.21.37,2.21.37Z" style="fill:#407BFF"></path><path d="M137.18,453.37l-4.33-.05-19-.2a.18.18,0,1,1,0-.36h1.29s0,0,0,0a4,4,0,0,0-2-5.09c-.21-.11,0-.44.19-.32a4.34,4.34,0,0,1,2.14,5.46l2.67,0,19,.2A.19.19,0,0,1,137.18,453.37Z"></path><path d="M123.24,448.46a2.34,2.34,0,0,1,3.44-.63c.2.15.38-.18.19-.32a2.71,2.71,0,0,0-4,.76c-.14.19.19.38.32.19Z" style="fill:#fff"></path><path d="M125.32,449.08a2.34,2.34,0,0,1,3.44-.62c.19.14.37-.18.18-.32a2.69,2.69,0,0,0-3.94.75c-.14.2.18.39.32.19Z" style="fill:#fff"></path><path d="M127.46,449.71a2.33,2.33,0,0,1,3.44-.62c.19.14.38-.18.19-.33a2.71,2.71,0,0,0-4,.76c-.14.2.18.38.32.19Z" style="fill:#fff"></path><path d="M161,436.21h12.44c1.07-16,4.12-69.07,1.71-95.32,1.73-36.43-3.84-84.79-3.84-84.79H131.94s2.89,32.36,15.85,84.26C147.7,381.48,157.73,422.59,161,436.21Z" style="fill:#407BFF"></path><path d="M145.66,331.64c7.12-29.08.87-66.8.87-66.8l-6.14,43.08Z" style="opacity:0.2"></path><polygon points="159.54 435.9 160.45 440.63 174.71 440.57 174.72 435.84 159.54 435.9" style="fill:#263238"></polygon><path d="M110.71,436.67h12.43c4.43-16.47,15.22-69.53,16.64-95.78,7.05-36.43,8.53-84.79,8.53-84.79H108.92s-1.83,32.36,3.55,84.26C106.39,381.48,110.43,422.59,110.71,436.67Z" style="fill:#407BFF"></path><polygon points="109.62 435.89 109.6 440.57 123.97 440.58 124.72 435.89 109.62 435.89" style="fill:#263238"></polygon><path d="M176.48,262c-27.31,10.51-71.83,2.89-71.83,2.89.54-13.35,1-39.82.81-61.81,0-3.66-.09-7.2-.16-10.53-.12-6-.33-11.39-.61-15.6-.5-7.5,3.57-14.47,11-15.71,2.25-.38,4.68-.71,7.21-1l1.83-.18a179.64,179.64,0,0,1,21.75-.8l1,0,.57,0,.9,0c3.14.12,6.1.36,8.76.71,6,.78,11.41,5.55,11.52,11.64C169.51,187.8,173.52,255.14,176.48,262Z" style="fill:#263238"></path><path d="M140.41,169.55c-8.69-1.36-13.18-6.73-15.7-9.44a179.64,179.64,0,0,1,21.75-.8C153.28,167.08,148.48,170.82,140.41,169.55Z" style="fill:#263238"></path><path d="M140.41,169.55c-8.69-1.36-13.18-6.73-15.7-9.44a179.64,179.64,0,0,1,21.75-.8C153.28,167.08,148.48,170.82,140.41,169.55Z" style="fill:#fff;opacity:0.9"></path><path d="M141.2,116.48A16.41,16.41,0,0,0,128.63,120c-2.26,1.9-4,4.43-3.31,7.49,1.71,7.12,6.34,18.65,6.34,18.65l21.74-16.24s.21-6.9-3.21-10.37C148.41,117.76,144.52,116.9,141.2,116.48Z"></path><path d="M127.4,121.2a2.9,2.9,0,0,0-3.64-.75c-2.06,1.19.51,2,.51,2s-2.53,2.39-1.31,3.42,3.62-1.8,3.62-1.8Z"></path><path d="M144.17,152.75h0a.94.94,0,0,0,0,.09l-.64,4.29a14.09,14.09,0,0,0,.23,2.53,15.69,15.69,0,0,0,.53,2c1.06,1.15,1.81,4-1.45,4.33-4.11.47-12.32-4.33-12.79-6.12,1.29-5.83,2.16-13,1.27-18.3l5.25,4.57Z" style="fill:#b55b52"></path><g style="opacity:0.2"><path d="M144.15,152.85l-.64,4.29c-2.71-.89-5.68-3.13-6.6-5.8-.64-1.93.05-3.88.83-4.07Z"></path></g><path d="M153.61,143c-.14.93-.32,1.86-.51,2.77-1.75,8.07-11.27,9.82-17.87,4.74l0,0a13.26,13.26,0,0,1-1.68-1.52c-4.35-4.57-3.81-8.51-4.19-17.29A12,12,0,0,1,146.06,120C153.8,123.34,155.07,133.63,153.61,143Z" style="fill:#b55b52"></path><path d="M153.61,143c-.14.93-.32,1.86-.51,2.77-1.75,8.07-11.27,9.82-17.87,4.74l0,0c-2.81-3-3.76-6.5-1.54-12.29l2,1.33s.42,1.17,3.45,1.67,4.41-1.4,8.84-.22c0,0,2.61-1.34,4.5-.45C153.85,141.18,153.55,141.91,153.61,143Z"></path><path d="M147.66,144.69a1.38,1.38,0,1,1-1.19-1.76A1.51,1.51,0,0,1,147.66,144.69Z" style="fill:#fff"></path><path d="M146.62,119.07c-4.46-2.33-12.86-2-15.78,2.49s-1.51,10.91-1.51,10.91a3.71,3.71,0,0,1,2.06.54,3.87,3.87,0,0,1,1,.88,10.8,10.8,0,0,0,3,2.09c-.41-2.42-1-7.09.71-7.2,2.28-.14-.61-3.73.69-4.44,3.06-1.67,11.78-2.73,15.74,2.16C152.55,126.5,151.08,121.41,146.62,119.07Z"></path><path d="M138.55,116.77s4.86-4.39,8.15-3.31c3,1,4.89-.8,5.7-3.62,0,0,2.09,4.33.15,7.81,0,0,3.28-1.88,3.71-4.55,0,0,1.62,5.29-.35,8.71a5.59,5.59,0,0,1-5.74,2.69Z"></path><path d="M125.47,137.43a8.3,8.3,0,0,0,3.91,5c2.55,1.43,4.51-.68,4.38-3.45-.12-2.49-1.59-6.24-4.43-6.54s-4.55,2.34-3.86,5" style="fill:#b55b52"></path><path d="M132.05,142.42a1,1,0,1,1-1-1A1,1,0,0,1,132.05,142.42Z" style="fill:#fff"></path><path d="M142.84,134.1c0,.69.34,1.26.79,1.27s.83-.55.84-1.24-.34-1.26-.79-1.26-.83.54-.84,1.23"></path><path d="M150.41,134.15c0,.69.34,1.26.79,1.26s.83-.54.84-1.23-.34-1.26-.79-1.27-.83.55-.84,1.24"></path><path d="M152.54,131.61a.33.33,0,0,1-.29-.18,1.83,1.83,0,0,0-1.07-1,2.07,2.07,0,0,0-1.42.19.35.35,0,0,1-.34-.61,2.74,2.74,0,0,1,2-.25,2.47,2.47,0,0,1,1.49,1.3.35.35,0,0,1-.14.47A.39.39,0,0,1,152.54,131.61Z"></path><path d="M140.77,131.41a.32.32,0,0,1-.16,0,.38.38,0,0,1-.16-.51,3,3,0,0,1,1.62-1.39,2.72,2.72,0,0,1,2.12.3.38.38,0,1,1-.36.66,2,2,0,0,0-1.53-.24,2.23,2.23,0,0,0-1.18,1A.38.38,0,0,1,140.77,131.41Z"></path><path d="M147.44,133.89a7.76,7.76,0,0,0,2.24,3.8c1.76,1.54-1.79,2.81-1.79,2.81Z" style="fill:#a02724"></path><path d="M118.92,180.85l-13.46,22.27c0-3.66-.09-7.2-.16-10.53Z" style="opacity:0.2"></path><path d="M105.7,235.07l-5.4,7.42A181,181,0,0,1,79.24,228.4c-1.7-1.32-3.41-2.7-5.07-4.24a42.74,42.74,0,0,1-5.1-5.4,20,20,0,0,1-1.35-2,13.07,13.07,0,0,1-1.34-3.19,7.52,7.52,0,0,1-.26-1.26,10.2,10.2,0,0,1-.11-1.56,8.63,8.63,0,0,1,.06-1c0-.33.08-.65.15-1a8.62,8.62,0,0,1,.32-1.1l.18-.54.14-.3.28-.58.23-.43.23-.41.19-.31c.27-.44.49-.74.71-1.08.87-1.21,1.61-2.13,2.36-3s1.48-1.73,2.21-2.56c2.93-3.23,5.88-6.22,8.84-9.18s6-5.83,9-8.62c6.08-5.65,12.26-11.11,18.73-16.33l11.95,14.13c-6,5.41-12.29,10.7-18.48,15.95l-9.25,7.88c-3.08,2.6-6.12,5.24-9,7.84-.69.63-1.36,1.26-2,1.86.49.66,1.05,1.35,1.61,2,1.2,1.4,2.49,2.84,3.84,4.26C93.82,223.94,99.83,229.53,105.7,235.07Z" style="fill:#263238"></path><path d="M102.54,232s8.74.51,10.26,1.64-3.5,11.25-6,13.15-2-1.87-2-1.87-4.33.41-6.78-1.89S95.87,234.34,102.54,232Z" style="fill:#b55b52"></path></g></svg>
