<svg xmlns:xlink="http://www.w3.org/1999/xlink" xmlns="http://www.w3.org/2000/svg" viewBox="0 0 240 204" class="ui-icon ui-message__illustration" id="agreement-illustration" style="--icon-color:transparent;" width="240"  height="204" ><circle cx="120" cy="102" r="102" fill="#E6F9F2"></circle><path fill-rule="evenodd" clip-rule="evenodd" d="M166 64l-26-26H79.998a6 6 0 00-6 6v114a8 8 0 008 8H160a6 6 0 006-6V64z" fill="#FFFFFF" stroke="#333D48" stroke-width="2px" stroke-linejoin="round"></path><path fill-rule="evenodd" clip-rule="evenodd" d="M96.624 39c.248 1.63.376 3.3.376 5 0 14.368-9.183 26.592-22 31.122V39h21.624z" fill="#D6DDE3"></path><circle cx="62" cy="42" r="32" fill="#FFFFFF" stroke="#333D48" stroke-width="2px"></circle><path fill-rule="evenodd" clip-rule="evenodd" d="M62 24a9 9 0 00-9 9v8a9 9 0 1018 0v-8a9 9 0 00-9-9zm0 26a5 5 0 01-5-5V34a5 5 0 0110 0v11a5 5 0 01-5 5z" fill="#E7EBEE"></path><path d="M54 33a8 8 0 018-8v-2c-5.523 0-10 4.477-10 10h2zm0 8v-8h-2v8h2zm8 8a8 8 0 01-8-8h-2c0 5.523 4.477 10 10 10v-2zm8-8a8 8 0 01-8 8v2c5.523 0 10-4.477 10-10h-2zm0-8v8h2v-8h-2zm-8-8a8 8 0 018 8h2c0-5.523-4.477-10-10-10v2zm0 24a4 4 0 01-4-4h-2a6 6 0 006 6v-2zm-4-4V34h-2v11h2zm0-11a4 4 0 014-4v-2a6 6 0 00-6 6h2zm4-4a4 4 0 014 4h2a6 6 0 00-6-6v2zm4 4v11h2V34h-2zm0 11a4 4 0 01-4 4v2a6 6 0 006-6h-2z" fill="#333D48"></path><rect x="50" y="36" width="24" height="24" rx="12" fill="#FFC037" stroke="#EBA100" stroke-width="2px"></rect><circle cx="62" cy="46" r="3" fill="#333D48"></circle><rect x="61" y="46" width="2" height="8" rx="1" fill="#333D48"></rect><circle cx="178" cy="158" r="32" fill="#FFFFFF" stroke="#333D48" stroke-width="2px"></circle><path fill-rule="evenodd" clip-rule="evenodd" d="M164 161l4-4 6 6 16-16 4 4-20 20-10-10z" fill="#2DC692" stroke="#1AA175" stroke-width="2px" stroke-linecap="round" stroke-linejoin="round"></path><path fill-rule="evenodd" clip-rule="evenodd" d="M140 41v18a8 8 0 008 8h17v-2l-25-24z" fill="#D6DDE3"></path><path fill-rule="evenodd" clip-rule="evenodd" d="M140 38v18a8 8 0 008 8h18l-26-26z" fill="#C1CBD5" stroke="#333D48" stroke-width="2px" stroke-linejoin="round"></path><path d="M94 89h40m-40-8h52M94 97h48m-48 8h40m-40 8h52m-52 8h44m-44 14h24" stroke="#C1CBD5" stroke-width="2px" fill-opacity="0" fill="#000000"></path></svg>